<svg width="99" height="50" viewBox="0 0 468 237" fill="none" xmlns="http://www.w3.org/2000/svg">
    <path d="M155.571 9.04v2.28c-2.72.72-5.76 2.04-9.12 3.96-3.28 1.92-6.8 5-10.56 9.24l-22.08 25.08 9.72-12.72 28.44 47.4c1.04 1.68 2.08 3.08 3.12 4.2s2.44 2.16 4.2 3.12V94c-3.36-.16-6.96-.24-10.8-.24-3.76-.08-7.36-.12-10.8-.12-1.84 0-4.12.04-6.84.12-2.72 0-6.16.08-10.32.24v-2.4c3.76-.16 5.92-.6 6.48-1.32.64-.72.36-2.08-.84-4.08l-17.4-29.4c-.8-1.44-1.52-2.52-2.16-3.24-.64-.72-1.28-1.24-1.92-1.56-.56-.32-1.32-.52-2.28-.6v-2.52c3.52-.16 6.84-1.32 9.96-3.48 3.12-2.24 6.88-5.84 11.28-10.8l4.08-4.56c3.36-3.76 5.12-7 5.28-9.72.24-2.8-.6-4.96-2.52-6.48-1.84-1.6-4.28-2.44-7.32-2.52V9.04c2.24.08 4.32.16 6.24.24 2 0 4.08.04 6.24.12h7.8c2.56 0 4.8-.04 6.72-.12 2-.08 3.8-.16 5.4-.24Zm-43.92 0v2.4c-2.4.08-4.24.4-5.52.96-1.2.48-2 1.44-2.4 2.88-.4 1.36-.6 3.52-.6 6.48v59.52c0 2.88.2 5.04.6 6.48.48 1.44 1.32 2.4 2.52 2.88s3 .8 5.4.96V94c-2.32-.16-5.32-.24-9-.24-3.6-.08-7.28-.12-11.04-.12-4.32 0-8.4.04-12.24.12-3.76 0-6.8.08-9.12.24v-2.4c2.48-.16 4.32-.48 5.52-.96 1.2-.48 2-1.44 2.4-2.88.4-1.44.6-3.6.6-6.48V21.76c0-2.96-.2-5.12-.6-6.48-.4-1.44-1.24-2.4-2.52-2.88-1.2-.56-3-.88-5.4-.96v-2.4c2.32.08 5.36.16 9.12.24 3.84.08 7.92.12 12.24.12 3.76 0 7.44-.04 11.04-.12 3.68-.08 6.68-.16 9-.24Zm76.987 21c7.04 0 12.56 2.08 16.56 6.24 4.08 4.08 6.12 10.96 6.12 20.64h-37.56l-.24-2.28h20.28c.08-3.92-.08-7.52-.48-10.8-.4-3.36-1.04-6.04-1.92-8.04-.88-2-2.08-3-3.6-3-2.16 0-3.92 1.72-5.28 5.16-1.36 3.36-2.24 9.16-2.64 17.4l.48.96c-.08.8-.12 1.6-.12 2.4v2.52c0 5.6.68 9.96 2.04 13.08 1.44 3.12 3.2 5.28 5.28 6.48 2.16 1.2 4.32 1.8 6.48 1.8 1.12 0 2.44-.16 3.96-.48 1.6-.32 3.32-1.04 5.16-2.16 1.84-1.2 3.64-3 5.4-5.4l2.04.72c-.96 3.2-2.52 6.4-4.68 9.6-2.08 3.12-4.8 5.72-8.16 7.8-3.36 2-7.44 3-12.24 3-5.12 0-9.8-1.04-14.04-3.12-4.16-2.08-7.48-5.52-9.96-10.32-2.48-4.8-3.72-11.24-3.72-19.32 0-7.68 1.36-13.92 4.08-18.72 2.72-4.88 6.4-8.44 11.04-10.68 4.72-2.32 9.96-3.48 15.72-3.48Zm79.432 1.2L241.19 92.2h1.68c3.04 0 6.04-.68 9-2.04 3.04-1.36 5.64-3.68 7.8-6.96 2.24-3.36 3.56-8 3.96-13.92h2.4c0 6.32.04 11.44.12 15.36.08 3.84.2 7.12.36 9.84-3.68-.16-7.52-.28-11.52-.36-4-.08-8-.12-12-.12-4.16 0-8.44.04-12.84.12-4.4.16-8.6.32-12.6.48l26.88-60.96h-2.4c-2.96 0-5.92.68-8.88 2.04-2.88 1.36-5.36 3.72-7.44 7.08-2 3.28-3.24 7.88-3.72 13.8h-2.4c0-6.4-.04-11.52-.12-15.36-.08-3.84-.2-7.12-.36-9.84 3.76.16 7.64.28 11.64.36 4 .08 7.96.12 11.88.12 4.24 0 8.52-.04 12.84-.12 4.4-.16 8.6-.32 12.6-.48ZM290.351.16c4.16 0 7.36.88 9.6 2.64 2.32 1.68 3.48 4.24 3.48 7.68 0 3.44-1.16 6.04-3.48 7.8-2.24 1.68-5.44 2.52-9.6 2.52-4.16 0-7.4-.84-9.72-2.52-2.24-1.76-3.36-4.36-3.36-7.8 0-3.44 1.12-6 3.36-7.68 2.32-1.76 5.56-2.64 9.72-2.64Zm11.52 30.24v52.44c0 3.36.48 5.64 1.44 6.84 1.04 1.2 2.8 1.8 5.28 1.8V94c-1.6-.08-4-.16-7.2-.24-3.2-.16-6.48-.24-9.84-.24-3.36 0-6.76.08-10.2.24-3.44.08-6.04.16-7.8.24v-2.52c2.48 0 4.2-.6 5.16-1.8 1.04-1.2 1.56-3.48 1.56-6.84V44.8c0-3.6-.48-6.24-1.44-7.92-.96-1.76-2.72-2.64-5.28-2.64v-2.52c2.56.24 5.04.36 7.44.36 4 0 7.72-.12 11.16-.36 3.52-.32 6.76-.76 9.72-1.32Zm27.49 64.44c-3.76 0-6.84-.72-9.24-2.16-2.4-1.44-4.16-3.32-5.28-5.64a17.697 17.697 0 0 1-1.56-7.32c0-3.36.76-6.08 2.28-8.16 1.52-2.16 3.48-3.88 5.88-5.16 2.48-1.36 5.08-2.48 7.8-3.36 2.72-.88 5.28-1.72 7.68-2.52 2.48-.88 4.48-1.88 6-3 1.52-1.2 2.28-2.72 2.28-4.56V42.28c0-1.28-.24-2.68-.72-4.2-.4-1.52-1.2-2.84-2.4-3.96s-3-1.68-5.4-1.68c-1.28 0-2.52.2-3.72.6-1.12.32-2.12.8-3 1.44 2.8 1.04 4.84 2.52 6.12 4.44 1.28 1.84 1.92 3.88 1.92 6.12 0 3.2-1.12 5.72-3.36 7.56-2.24 1.84-4.88 2.76-7.92 2.76-3.2 0-5.68-1-7.44-3-1.76-2-2.64-4.48-2.64-7.44 0-2.48.6-4.56 1.8-6.24 1.28-1.76 3.16-3.36 5.64-4.8 2.4-1.36 5.28-2.32 8.64-2.88 3.36-.64 6.88-.96 10.56-.96 3.92 0 7.56.4 10.92 1.2 3.36.72 6.24 2.32 8.64 4.8 1.68 1.76 2.76 3.96 3.24 6.6.48 2.64.72 6.04.72 10.2V85c0 2 .12 3.36.36 4.08.32.72.84 1.08 1.56 1.08.64 0 1.24-.2 1.8-.6.64-.4 1.24-.8 1.8-1.2l1.2 2.04c-1.76 1.52-3.96 2.64-6.6 3.36-2.56.72-5.28 1.08-8.16 1.08-3.44 0-6.12-.4-8.04-1.2-1.84-.88-3.16-2-3.96-3.36-.72-1.44-1.12-2.96-1.2-4.56-1.68 2.64-3.8 4.84-6.36 6.6-2.48 1.68-5.76 2.52-9.84 2.52Zm11.4-9.6c.88 0 1.64-.12 2.28-.36.72-.32 1.44-.88 2.16-1.68V57.88c-.56 1.04-1.32 2.08-2.28 3.12-.88.96-1.8 1.96-2.76 3a38.6 38.6 0 0 0-2.76 3.36c-.8 1.2-1.48 2.6-2.04 4.2-.48 1.52-.72 3.32-.72 5.4 0 3.04.56 5.2 1.68 6.48 1.2 1.2 2.68 1.8 4.44 1.8ZM38.274 128.2c3.12 0 5.6.16 7.44.48 1.84.24 3.52.64 5.04 1.2 1.36.4 2.72 1.04 4.08 1.92 1.44.88 2.64 2.04 3.6 3.48s1.44 3.2 1.44 5.28c0 2.72-1.08 4.92-3.24 6.6-2.08 1.68-4.64 2.52-7.68 2.52-2.88 0-5.32-.68-7.32-2.04-2-1.36-3-3.48-3-6.36 0-2.24.76-4.28 2.28-6.12 1.6-1.92 3.68-3.2 6.24-3.84-.8-.32-1.88-.56-3.24-.72a30.93 30.93 0 0 0-3.84-.24c-4.24 0-7.92 1.36-11.04 4.08-3.12 2.72-4.68 6.92-4.68 12.6 0 1.52.24 3.28.72 5.28.48 1.92 1.48 3.92 3 6 1.36-.4 2.52-.68 3.48-.84.96-.16 1.88-.24 2.76-.24 1.44 0 2.48.32 3.12.96.72.64 1.08 1.48 1.08 2.52 0 .8-.36 1.44-1.08 1.92-.64.48-1.4.72-2.28.72-1.28 0-2.56-.4-3.84-1.2-1.28-.8-2.32-1.52-3.12-2.16-3.2 2.24-5.8 4.84-7.8 7.8s-3 6.76-3 11.4c0 5.12 1.4 9.28 4.2 12.48 2.88 3.12 7.08 5.44 12.6 6.96 5.52 1.44 12.2 2.16 20.04 2.16 3.84 0 7.76-.4 11.76-1.2 4-.8 7.68-2.04 11.04-3.72 3.36-1.68 6.08-3.76 8.16-6.24 2.08-2.56 3.12-5.56 3.12-9 0-1.12-.12-2.52-.36-4.2-.16-1.68-.72-3.4-1.68-5.16-.96-1.76-2.6-3.28-4.92-4.56l.36-.96c3.28 1.04 5.96 3.4 8.04 7.08 2.16 3.68 3.24 8 3.24 12.96 0 6.08-1.92 11.36-5.76 15.84s-9.12 7.96-15.84 10.44c-6.72 2.4-14.4 3.6-23.04 3.6-7.6 0-14.36-.68-20.28-2.04-5.84-1.36-10.8-3.32-14.88-5.88-4.08-2.64-7.2-5.8-9.36-9.48-2.08-3.68-3.12-7.84-3.12-12.48 0-4.56.96-8.44 2.88-11.64 2-3.2 4.44-5.84 7.32-7.92s5.76-3.68 8.64-4.8c2.88-1.2 5.2-2 6.96-2.4-2.4-.88-4.72-1.92-6.96-3.12-2.24-1.28-4.08-2.88-5.52-4.8-1.36-1.92-2.04-4.24-2.04-6.96 0-3.04.8-5.56 2.4-7.56 1.68-2.08 3.84-3.72 6.48-4.92 2.72-1.2 5.6-2.08 8.64-2.64 3.04-.56 5.96-.84 8.76-.84Zm49.44-.84c6.08 0 10.96 1.52 14.64 4.56 3.68 3.04 5.52 7.32 5.52 12.84 0 5.04-1.32 9.2-3.96 12.48-2.64 3.2-6.44 5.76-11.4 7.68-4.88 1.84-10.76 3.28-17.64 4.32-.72.08-1.48.2-2.28.36-.72.08-1.44.2-2.16.36-.72.08-1.44.2-2.16.36-.64.08-1.32.2-2.04.36-8.32 1.52-14.64 3.16-18.96 4.92-4.24 1.68-6.36 4.16-6.36 7.44 0 1.92.68 3.64 2.04 5.16 1.44 1.44 3.24 2.56 5.4 3.36 2.24.8 4.52 1.2 6.84 1.2h1.08c.4-.08.76-.12 1.08-.12.4-.08.76-.12 1.08-.12-2.48-.88-4.16-2.16-5.04-3.84-.88-1.68-1.32-3.4-1.32-5.16 0-2.96 1.12-5.2 3.36-6.72 2.24-1.52 5-2.28 8.28-2.28 3.52 0 6.24.84 8.16 2.52 2 1.68 3 3.92 3 6.72 0 2.64-.8 4.8-2.4 6.48-1.52 1.68-3.68 2.92-6.48 3.72-2.8.72-6.12 1.08-9.96 1.08-3.76 0-7.16-.6-10.2-1.8-2.96-1.28-5.32-3.12-7.08-5.52-1.68-2.4-2.52-5.4-2.52-9 0-5.12 1.36-9.32 4.08-12.6 2.8-3.36 6.72-6.04 11.76-8.04 5.04-2 10.96-3.48 17.76-4.44 1.2-.16 2.36-.32 3.48-.48 1.12-.24 2.24-.44 3.36-.6 1.2-.24 2.4-.44 3.6-.6 6.88-1.12 12.44-2.52 16.68-4.2 4.32-1.68 6.48-4.32 6.48-7.92 0-2.08-.68-3.88-2.04-5.4-1.28-1.52-2.96-2.68-5.04-3.48-2-.8-4.08-1.2-6.24-1.2-.56 0-1.12.04-1.68.12-.56 0-1.08.04-1.56.12 2.48.88 4.32 2.16 5.52 3.84 1.28 1.68 1.92 3.4 1.92 5.16 0 2.96-1.08 5.2-3.24 6.72-2.16 1.44-4.88 2.16-8.16 2.16-3.52 0-6.32-.84-8.4-2.52-2-1.68-3-3.92-3-6.72 0-2.16.56-4.08 1.68-5.76 1.12-1.76 2.88-3.12 5.28-4.08 2.4-.96 5.48-1.44 9.24-1.44Zm45.376 109.2v-2.52c2.88-.4 5.4-1.36 7.56-2.88 2.16-1.44 3.8-4.04 4.92-7.8 1.2-3.68 1.8-9 1.8-15.96v-65.64c0-2.96-.2-5.12-.6-6.48-.4-1.44-1.24-2.4-2.52-2.88-1.2-.56-3-.88-5.4-.96v-2.4c2.16.08 5.04.16 8.64.24 3.6.08 7.4.12 11.4.12s7.92-.04 11.76-.12c3.92-.08 7.12-.16 9.6-.24v2.4c-2.4.08-4.24.4-5.52.96-1.2.48-2 1.44-2.4 2.88-.4 1.36-.6 3.52-.6 6.48v54.6c.08 3.76-.04 7.44-.36 11.04-.24 3.6-.8 6.8-1.68 9.6-1.76 5.52-5.64 10.16-11.64 13.92-6 3.76-14.32 5.64-24.96 5.64Zm66.251-21.72c-3.76 0-6.84-.72-9.24-2.16-2.4-1.44-4.16-3.32-5.28-5.64a17.697 17.697 0 0 1-1.56-7.32c0-3.36.76-6.08 2.28-8.16 1.52-2.16 3.48-3.88 5.88-5.16 2.48-1.36 5.08-2.48 7.8-3.36 2.72-.88 5.28-1.72 7.68-2.52 2.48-.88 4.48-1.88 6-3 1.52-1.2 2.28-2.72 2.28-4.56v-10.68c0-1.28-.24-2.68-.72-4.2-.4-1.52-1.2-2.84-2.4-3.96s-3-1.68-5.4-1.68c-1.28 0-2.52.2-3.72.6-1.12.32-2.12.8-3 1.44 2.8 1.04 4.84 2.52 6.12 4.44 1.28 1.84 1.92 3.88 1.92 6.12 0 3.2-1.12 5.72-3.36 7.56-2.24 1.84-4.88 2.76-7.92 2.76-3.2 0-5.68-1-7.44-3-1.76-2-2.64-4.48-2.64-7.44 0-2.48.6-4.56 1.8-6.24 1.28-1.76 3.16-3.36 5.64-4.8 2.4-1.36 5.28-2.32 8.64-2.88 3.36-.64 6.88-.96 10.56-.96 3.92 0 7.56.4 10.92 1.2 3.36.72 6.24 2.32 8.64 4.8 1.68 1.76 2.76 3.96 3.24 6.6.48 2.64.72 6.04.72 10.2V205c0 2 .12 3.36.36 4.08.32.72.84 1.08 1.56 1.08.64 0 1.24-.2 1.8-.6.64-.4 1.24-.8 1.8-1.2l1.2 2.04c-1.76 1.52-3.96 2.64-6.6 3.36-2.56.72-5.28 1.08-8.16 1.08-3.44 0-6.12-.4-8.04-1.2-1.84-.88-3.16-2-3.96-3.36-.72-1.44-1.12-2.96-1.2-4.56-1.68 2.64-3.8 4.84-6.36 6.6-2.48 1.68-5.76 2.52-9.84 2.52Zm11.4-9.6c.88 0 1.64-.12 2.28-.36.72-.32 1.44-.88 2.16-1.68v-25.32c-.56 1.04-1.32 2.08-2.28 3.12-.88.96-1.8 1.96-2.76 3a38.6 38.6 0 0 0-2.76 3.36c-.8 1.2-1.48 2.6-2.04 4.2-.48 1.52-.72 3.32-.72 5.4 0 3.04.56 5.2 1.68 6.48 1.2 1.2 2.68 1.8 4.44 1.8Zm82.35-55.2c3.68 0 6.56.48 8.64 1.44 2.16.88 3.8 2 4.92 3.36 1.2 1.44 2.08 3.36 2.64 5.76s.84 5.64.84 9.72v32.52c0 3.36.4 5.64 1.2 6.84.8 1.2 2.24 1.8 4.32 1.8V214c-1.52-.08-3.8-.16-6.84-.24-2.96-.16-5.88-.24-8.76-.24-3.12 0-6.16.08-9.12.24-2.96.08-5.2.16-6.72.24v-2.52c1.6 0 2.72-.6 3.36-1.8.64-1.2.96-3.48.96-6.84v-39c0-1.68-.16-3.08-.48-4.2-.32-1.12-.84-1.96-1.56-2.52-.64-.56-1.52-.84-2.64-.84-1.44 0-2.84.36-4.2 1.08-1.28.72-2.36 1.76-3.24 3.12-.8 1.28-1.2 2.76-1.2 4.44v37.92c0 3.36.32 5.64.96 6.84.64 1.2 1.76 1.8 3.36 1.8V214c-1.36-.08-3.44-.16-6.24-.24-2.72-.16-5.52-.24-8.4-.24-3.36 0-6.76.08-10.2.24-3.44.08-6.04.16-7.8.24v-2.52c2.48 0 4.2-.6 5.16-1.8 1.04-1.2 1.56-3.48 1.56-6.84V164.8c0-3.6-.48-6.24-1.44-7.92-.96-1.76-2.72-2.64-5.28-2.64v-2.52c2.56.24 5.04.36 7.44.36 4 0 7.72-.12 11.16-.36 3.52-.32 6.76-.76 9.72-1.32v8.64c1.84-3.2 4.28-5.48 7.32-6.84 3.04-1.44 6.56-2.16 10.56-2.16Zm36.12 0c3.68 0 6.56.48 8.64 1.44 2.16.88 3.8 2 4.92 3.36 1.2 1.44 2.08 3.36 2.64 5.76s.84 5.64.84 9.72v32.52c0 3.36.48 5.64 1.44 6.84 1.04 1.2 2.8 1.8 5.28 1.8V214c-1.6-.08-4.04-.16-7.32-.24-3.2-.16-6.36-.24-9.48-.24s-6.16.08-9.12.24c-2.96.08-5.2.16-6.72.24v-2.52c1.6 0 2.72-.6 3.36-1.8.64-1.2.96-3.48.96-6.84v-39c0-1.68-.2-3.08-.6-4.2-.4-1.12-1.04-1.96-1.92-2.52-.8-.56-1.92-.84-3.36-.84s-2.84.44-4.2 1.32c-1.28.88-2.36 2.04-3.24 3.48-.8 1.36-1.28 2.88-1.44 4.56l-.84-4.8c2.16-4.24 4.96-7.08 8.4-8.52 3.52-1.52 7.44-2.28 11.76-2.28Zm59.642 0c7.04 0 12.56 2.08 16.56 6.24 4.08 4.08 6.12 10.96 6.12 20.64h-37.56l-.24-2.28h20.28c.08-3.92-.08-7.52-.48-10.8-.4-3.36-1.04-6.04-1.92-8.04-.88-2-2.08-3-3.6-3-2.16 0-3.92 1.72-5.28 5.16-1.36 3.36-2.24 9.16-2.64 17.4l.48.96c-.08.8-.12 1.6-.12 2.4v2.52c0 5.6.68 9.96 2.04 13.08 1.44 3.12 3.2 5.28 5.28 6.48 2.16 1.2 4.32 1.8 6.48 1.8 1.12 0 2.44-.16 3.96-.48 1.6-.32 3.32-1.04 5.16-2.16 1.84-1.2 3.64-3 5.4-5.4l2.04.72c-.96 3.2-2.52 6.4-4.68 9.6-2.08 3.12-4.8 5.72-8.16 7.8-3.36 2-7.44 3-12.24 3-5.12 0-9.8-1.04-14.04-3.12-4.16-2.08-7.48-5.52-9.96-10.32-2.48-4.8-3.72-11.24-3.72-19.32 0-7.68 1.36-13.92 4.08-18.72 2.72-4.88 6.4-8.44 11.04-10.68 4.72-2.32 9.96-3.48 15.72-3.48Zm53.512 0c3.52 0 6.6.4 9.24 1.2 2.72.72 4.68 1.4 5.88 2.04 2.8 1.68 4.52.64 5.16-3.12h2.4c-.16 2.32-.28 5.16-.36 8.52-.08 3.28-.12 7.64-.12 13.08h-2.4a34.24 34.24 0 0 0-2.16-8.76c-1.04-2.88-2.6-5.28-4.68-7.2-2-1.92-4.64-2.88-7.92-2.88-2 0-3.68.6-5.04 1.8-1.36 1.2-2.04 2.84-2.04 4.92 0 2.4.72 4.56 2.16 6.48 1.44 1.84 3.28 3.64 5.52 5.4 2.24 1.68 4.48 3.48 6.72 5.4 2.48 2 4.68 3.96 6.6 5.88s3.44 4.04 4.56 6.36c1.2 2.24 1.8 4.92 1.8 8.04 0 3.6-1.12 6.8-3.36 9.6-2.16 2.8-5.08 5-8.76 6.6-3.6 1.52-7.64 2.28-12.12 2.28-2.8 0-5.24-.32-7.32-.96-2.08-.56-3.76-1.24-5.04-2.04-1.28-.64-2.4-1.12-3.36-1.44-.88-.4-1.76-.6-2.64-.6-.8 0-1.48.44-2.04 1.32-.56.8-1 1.76-1.32 2.88h-2.4c.16-2.56.28-5.68.36-9.36.08-3.68.12-8.56.12-14.64h2.4c.48 4.24 1.4 8 2.76 11.28 1.44 3.28 3.24 5.88 5.4 7.8 2.24 1.84 4.8 2.76 7.68 2.76 1.28 0 2.44-.24 3.48-.72s1.88-1.2 2.52-2.16c.64-.96.96-2.2.96-3.72 0-3.52-1.08-6.48-3.24-8.88-2.08-2.4-4.72-5.04-7.92-7.92-2.4-2.24-4.68-4.4-6.84-6.48-2.08-2.16-3.8-4.48-5.16-6.96-1.36-2.56-2.04-5.4-2.04-8.52 0-3.6 1.04-6.68 3.12-9.24 2.16-2.56 4.96-4.52 8.4-5.88 3.44-1.44 7.12-2.16 11.04-2.16Z" fill="#000"/>
</svg>