<svg width="100%" viewBox="0 0 468 237" fill="none" xmlns="http://www.w3.org/2000/svg">
    <title>Kezia &amp; James</title>
    <path d="M155.571 9.04V11.32C152.851 12.04 149.811 13.36 146.451 15.28C143.171 17.2 139.651 20.28 135.891 24.52L113.811 49.6L123.531 36.88L151.971 84.28C153.011 85.96 154.051 87.36 155.091 88.48C156.131 89.6 157.531 90.64 159.291 91.6V94C155.931 93.84 152.331 93.76 148.491 93.76C144.731 93.68 141.131 93.64 137.691 93.64C135.851 93.64 133.571 93.68 130.851 93.76C128.131 93.76 124.691 93.84 120.531 94V91.6C124.291 91.44 126.451 91 127.011 90.28C127.651 89.56 127.371 88.2 126.171 86.2L108.771 56.8C107.971 55.36 107.251 54.28 106.611 53.56C105.971 52.84 105.331 52.32 104.691 52C104.131 51.68 103.371 51.48 102.411 51.4V48.88C105.931 48.72 109.251 47.56 112.371 45.4C115.491 43.16 119.251 39.56 123.651 34.6L127.731 30.04C131.091 26.28 132.851 23.04 133.011 20.32C133.251 17.52 132.411 15.36 130.491 13.84C128.651 12.24 126.211 11.4 123.171 11.32V9.04C125.411 9.12 127.491 9.2 129.411 9.28C131.411 9.28 133.491 9.32 135.651 9.39999C137.891 9.39999 140.491 9.39999 143.451 9.39999C146.011 9.39999 148.251 9.36 150.171 9.28C152.171 9.2 153.971 9.12 155.571 9.04ZM111.651 9.04V11.44C109.251 11.52 107.411 11.84 106.131 12.4C104.931 12.88 104.131 13.84 103.731 15.28C103.331 16.64 103.131 18.8 103.131 21.76V81.28C103.131 84.16 103.331 86.32 103.731 87.76C104.211 89.2 105.051 90.16 106.251 90.64C107.451 91.12 109.251 91.44 111.651 91.6V94C109.331 93.84 106.331 93.76 102.651 93.76C99.0506 93.68 95.3706 93.64 91.6106 93.64C87.2906 93.64 83.2106 93.68 79.3706 93.76C75.6106 93.76 72.5706 93.84 70.2506 94V91.6C72.7306 91.44 74.5706 91.12 75.7706 90.64C76.9706 90.16 77.7706 89.2 78.1706 87.76C78.5706 86.32 78.7706 84.16 78.7706 81.28V21.76C78.7706 18.8 78.5706 16.64 78.1706 15.28C77.7706 13.84 76.9306 12.88 75.6506 12.4C74.4506 11.84 72.6506 11.52 70.2506 11.44V9.04C72.5706 9.12 75.6106 9.2 79.3706 9.28C83.2106 9.36 87.2906 9.39999 91.6106 9.39999C95.3706 9.39999 99.0506 9.36 102.651 9.28C106.331 9.2 109.331 9.12 111.651 9.04ZM188.638 30.04C195.678 30.04 201.198 32.12 205.198 36.28C209.278 40.36 211.318 47.24 211.318 56.92H173.758L173.518 54.64H193.798C193.878 50.72 193.718 47.12 193.318 43.84C192.918 40.48 192.278 37.8 191.398 35.8C190.518 33.8 189.318 32.8 187.798 32.8C185.638 32.8 183.878 34.52 182.518 37.96C181.158 41.32 180.278 47.12 179.878 55.36L180.358 56.32C180.278 57.12 180.238 57.92 180.238 58.72C180.238 59.52 180.238 60.36 180.238 61.24C180.238 66.84 180.918 71.2 182.278 74.32C183.718 77.44 185.478 79.6 187.558 80.8C189.718 82 191.878 82.6 194.038 82.6C195.158 82.6 196.478 82.44 197.998 82.12C199.598 81.8 201.318 81.08 203.158 79.96C204.998 78.76 206.798 76.96 208.558 74.56L210.598 75.28C209.638 78.48 208.078 81.68 205.918 84.88C203.838 88 201.118 90.6 197.758 92.68C194.398 94.68 190.318 95.68 185.518 95.68C180.398 95.68 175.718 94.64 171.478 92.56C167.318 90.48 163.998 87.04 161.518 82.24C159.038 77.44 157.798 71 157.798 62.92C157.798 55.24 159.158 49 161.878 44.2C164.598 39.32 168.278 35.76 172.918 33.52C177.638 31.2 182.878 30.04 188.638 30.04ZM268.07 31.24L241.19 92.2H242.87C245.91 92.2 248.91 91.52 251.87 90.16C254.91 88.8 257.51 86.48 259.67 83.2C261.91 79.84 263.23 75.2 263.63 69.28H266.03C266.03 75.6 266.07 80.72 266.15 84.64C266.23 88.48 266.35 91.76 266.51 94.48C262.83 94.32 258.99 94.2 254.99 94.12C250.99 94.04 246.99 94 242.99 94C238.83 94 234.55 94.04 230.15 94.12C225.75 94.28 221.55 94.44 217.55 94.6L244.43 33.64H242.03C239.07 33.64 236.11 34.32 233.15 35.68C230.27 37.04 227.79 39.4 225.71 42.76C223.71 46.04 222.47 50.64 221.99 56.56H219.59C219.59 50.16 219.55 45.04 219.47 41.2C219.39 37.36 219.27 34.08 219.11 31.36C222.87 31.52 226.75 31.64 230.75 31.72C234.75 31.8 238.71 31.84 242.63 31.84C246.87 31.84 251.15 31.8 255.47 31.72C259.87 31.56 264.07 31.4 268.07 31.24ZM290.351 0.159992C294.511 0.159992 297.711 1.03999 299.951 2.79999C302.271 4.48 303.431 7.04 303.431 10.48C303.431 13.92 302.271 16.52 299.951 18.28C297.711 19.96 294.511 20.8 290.351 20.8C286.191 20.8 282.951 19.96 280.631 18.28C278.391 16.52 277.271 13.92 277.271 10.48C277.271 7.04 278.391 4.48 280.631 2.79999C282.951 1.03999 286.191 0.159992 290.351 0.159992ZM301.871 30.4V82.84C301.871 86.2 302.351 88.48 303.311 89.68C304.351 90.88 306.111 91.48 308.591 91.48V94C306.991 93.92 304.591 93.84 301.391 93.76C298.191 93.6 294.911 93.52 291.551 93.52C288.191 93.52 284.791 93.6 281.351 93.76C277.911 93.84 275.311 93.92 273.551 94V91.48C276.031 91.48 277.751 90.88 278.711 89.68C279.751 88.48 280.271 86.2 280.271 82.84V44.8C280.271 41.2 279.791 38.56 278.831 36.88C277.871 35.12 276.111 34.24 273.551 34.24V31.72C276.111 31.96 278.591 32.08 280.991 32.08C284.991 32.08 288.711 31.96 292.151 31.72C295.671 31.4 298.911 30.96 301.871 30.4ZM329.361 94.84C325.601 94.84 322.521 94.12 320.121 92.68C317.721 91.24 315.961 89.36 314.841 87.04C313.801 84.72 313.281 82.28 313.281 79.72C313.281 76.36 314.041 73.64 315.561 71.56C317.081 69.4 319.041 67.68 321.441 66.4C323.921 65.04 326.521 63.92 329.241 63.04C331.961 62.16 334.521 61.32 336.921 60.52C339.401 59.64 341.401 58.64 342.921 57.52C344.441 56.32 345.201 54.8 345.201 52.96V42.28C345.201 41 344.961 39.6 344.481 38.08C344.081 36.56 343.281 35.24 342.081 34.12C340.881 33 339.081 32.44 336.681 32.44C335.401 32.44 334.161 32.64 332.961 33.04C331.841 33.36 330.841 33.84 329.961 34.48C332.761 35.52 334.801 37 336.081 38.92C337.361 40.76 338.001 42.8 338.001 45.04C338.001 48.24 336.881 50.76 334.641 52.6C332.401 54.44 329.761 55.36 326.721 55.36C323.521 55.36 321.041 54.36 319.281 52.36C317.521 50.36 316.641 47.88 316.641 44.92C316.641 42.44 317.241 40.36 318.441 38.68C319.721 36.92 321.601 35.32 324.081 33.88C326.481 32.52 329.361 31.56 332.721 31C336.081 30.36 339.601 30.04 343.281 30.04C347.201 30.04 350.841 30.44 354.201 31.24C357.561 31.96 360.441 33.56 362.841 36.04C364.521 37.8 365.601 40 366.081 42.64C366.561 45.28 366.801 48.68 366.801 52.84V85C366.801 87 366.921 88.36 367.161 89.08C367.481 89.8 368.001 90.16 368.721 90.16C369.361 90.16 369.961 89.96 370.521 89.56C371.161 89.16 371.761 88.76 372.321 88.36L373.521 90.4C371.761 91.92 369.561 93.04 366.921 93.76C364.361 94.48 361.641 94.84 358.761 94.84C355.321 94.84 352.641 94.44 350.721 93.64C348.881 92.76 347.561 91.64 346.761 90.28C346.041 88.84 345.641 87.32 345.561 85.72C343.881 88.36 341.761 90.56 339.201 92.32C336.721 94 333.441 94.84 329.361 94.84ZM340.761 85.24C341.641 85.24 342.401 85.12 343.041 84.88C343.761 84.56 344.481 84 345.201 83.2V57.88C344.641 58.92 343.881 59.96 342.921 61C342.041 61.96 341.121 62.96 340.161 64C339.201 65.04 338.281 66.16 337.401 67.36C336.601 68.56 335.921 69.96 335.361 71.56C334.881 73.08 334.641 74.88 334.641 76.96C334.641 80 335.201 82.16 336.321 83.44C337.521 84.64 339.001 85.24 340.761 85.24ZM38.2739 128.2C41.3939 128.2 43.8739 128.36 45.7139 128.68C47.5539 128.92 49.2339 129.32 50.7539 129.88C52.1139 130.28 53.4739 130.92 54.8339 131.8C56.2739 132.68 57.4739 133.84 58.4339 135.28C59.3939 136.72 59.8739 138.48 59.8739 140.56C59.8739 143.28 58.7939 145.48 56.6339 147.16C54.5539 148.84 51.9939 149.68 48.9539 149.68C46.0739 149.68 43.6339 149 41.6339 147.64C39.6339 146.28 38.6339 144.16 38.6339 141.28C38.6339 139.04 39.3939 137 40.9139 135.16C42.5139 133.24 44.5939 131.96 47.1539 131.32C46.3539 131 45.2739 130.76 43.9139 130.6C42.6339 130.44 41.3539 130.36 40.0739 130.36C35.8339 130.36 32.1539 131.72 29.0339 134.44C25.9139 137.16 24.3539 141.36 24.3539 147.04C24.3539 148.56 24.5939 150.32 25.0739 152.32C25.5539 154.24 26.5539 156.24 28.0739 158.32C29.4339 157.92 30.5939 157.64 31.5539 157.48C32.5139 157.32 33.4339 157.24 34.3139 157.24C35.7539 157.24 36.7939 157.56 37.4339 158.2C38.1539 158.84 38.5139 159.68 38.5139 160.72C38.5139 161.52 38.1539 162.16 37.4339 162.64C36.7939 163.12 36.0339 163.36 35.1539 163.36C33.8739 163.36 32.5939 162.96 31.3139 162.16C30.0339 161.36 28.9939 160.64 28.1939 160C24.9939 162.24 22.3939 164.84 20.3939 167.8C18.3939 170.76 17.3939 174.56 17.3939 179.2C17.3939 184.32 18.7939 188.48 21.5939 191.68C24.4739 194.8 28.6739 197.12 34.1939 198.64C39.7139 200.08 46.3939 200.8 54.2339 200.8C58.0739 200.8 61.9939 200.4 65.9939 199.6C69.9939 198.8 73.6739 197.56 77.0339 195.88C80.3939 194.2 83.1139 192.12 85.1939 189.64C87.2739 187.08 88.3139 184.08 88.3139 180.64C88.3139 179.52 88.1939 178.12 87.9539 176.44C87.7939 174.76 87.2339 173.04 86.2739 171.28C85.3139 169.52 83.6739 168 81.3539 166.72L81.7139 165.76C84.9939 166.8 87.6739 169.16 89.7539 172.84C91.9139 176.52 92.9939 180.84 92.9939 185.8C92.9939 191.88 91.0739 197.16 87.2339 201.64C83.3939 206.12 78.1139 209.6 71.3939 212.08C64.6739 214.48 56.9939 215.68 48.3539 215.68C40.7539 215.68 33.9939 215 28.0739 213.64C22.2339 212.28 17.2739 210.32 13.1939 207.76C9.11391 205.12 5.99391 201.96 3.83391 198.28C1.75391 194.6 0.713906 190.44 0.713906 185.8C0.713906 181.24 1.67391 177.36 3.59391 174.16C5.59391 170.96 8.03391 168.32 10.9139 166.24C13.7939 164.16 16.6739 162.56 19.5539 161.44C22.4339 160.24 24.7539 159.44 26.5139 159.04C24.1139 158.16 21.7939 157.12 19.5539 155.92C17.3139 154.64 15.4739 153.04 14.0339 151.12C12.6739 149.2 11.9939 146.88 11.9939 144.16C11.9939 141.12 12.7939 138.6 14.3939 136.6C16.0739 134.52 18.2339 132.88 20.8739 131.68C23.5939 130.48 26.4739 129.6 29.5139 129.04C32.5539 128.48 35.4739 128.2 38.2739 128.2ZM87.7139 127.36C93.7939 127.36 98.6739 128.88 102.354 131.92C106.034 134.96 107.874 139.24 107.874 144.76C107.874 149.8 106.554 153.96 103.914 157.24C101.274 160.44 97.4739 163 92.5139 164.92C87.6339 166.76 81.7539 168.2 74.8739 169.24C74.1539 169.32 73.3939 169.44 72.5939 169.6C71.8739 169.68 71.1539 169.8 70.4339 169.96C69.7139 170.04 68.9939 170.16 68.2739 170.32C67.6339 170.4 66.9539 170.52 66.2339 170.68C57.9139 172.2 51.5939 173.84 47.2739 175.6C43.0339 177.28 40.9139 179.76 40.9139 183.04C40.9139 184.96 41.5939 186.68 42.9539 188.2C44.3939 189.64 46.1939 190.76 48.3539 191.56C50.5939 192.36 52.8739 192.76 55.1939 192.76C55.5939 192.76 55.9539 192.76 56.2739 192.76C56.6739 192.68 57.0339 192.64 57.3539 192.64C57.7539 192.56 58.1139 192.52 58.4339 192.52C55.9539 191.64 54.2739 190.36 53.3939 188.68C52.5139 187 52.0739 185.28 52.0739 183.52C52.0739 180.56 53.1939 178.32 55.4339 176.8C57.6739 175.28 60.4339 174.52 63.7139 174.52C67.2339 174.52 69.9539 175.36 71.8739 177.04C73.8739 178.72 74.8739 180.96 74.8739 183.76C74.8739 186.4 74.0739 188.56 72.4739 190.24C70.9539 191.92 68.7939 193.16 65.9939 193.96C63.1939 194.68 59.8739 195.04 56.0339 195.04C52.2739 195.04 48.8739 194.44 45.8339 193.24C42.8739 191.96 40.5139 190.12 38.7539 187.72C37.0739 185.32 36.2339 182.32 36.2339 178.72C36.2339 173.6 37.5939 169.4 40.3139 166.12C43.1139 162.76 47.0339 160.08 52.0739 158.08C57.1139 156.08 63.0339 154.6 69.8339 153.64C71.0339 153.48 72.1939 153.32 73.3139 153.16C74.4339 152.92 75.5539 152.72 76.6739 152.56C77.8739 152.32 79.0739 152.12 80.2739 151.96C87.1539 150.84 92.7139 149.44 96.9539 147.76C101.274 146.08 103.434 143.44 103.434 139.84C103.434 137.76 102.754 135.96 101.394 134.44C100.114 132.92 98.4339 131.76 96.3539 130.96C94.3539 130.16 92.2739 129.76 90.1139 129.76C89.5539 129.76 88.9939 129.8 88.4339 129.88C87.8739 129.88 87.3539 129.92 86.8739 130C89.3539 130.88 91.1939 132.16 92.3939 133.84C93.6739 135.52 94.3139 137.24 94.3139 139C94.3139 141.96 93.2339 144.2 91.0739 145.72C88.9139 147.16 86.1939 147.88 82.9139 147.88C79.3939 147.88 76.5939 147.04 74.5139 145.36C72.5139 143.68 71.5139 141.44 71.5139 138.64C71.5139 136.48 72.0739 134.56 73.1939 132.88C74.3139 131.12 76.0739 129.76 78.4739 128.8C80.8739 127.84 83.9539 127.36 87.7139 127.36ZM133.09 236.56V234.04C135.97 233.64 138.49 232.68 140.65 231.16C142.81 229.72 144.45 227.12 145.57 223.36C146.77 219.68 147.37 214.36 147.37 207.4V141.76C147.37 138.8 147.17 136.64 146.77 135.28C146.37 133.84 145.53 132.88 144.25 132.4C143.05 131.84 141.25 131.52 138.85 131.44V129.04C141.01 129.12 143.89 129.2 147.49 129.28C151.09 129.36 154.89 129.4 158.89 129.4C162.89 129.4 166.81 129.36 170.65 129.28C174.57 129.2 177.77 129.12 180.25 129.04V131.44C177.85 131.52 176.01 131.84 174.73 132.4C173.53 132.88 172.73 133.84 172.33 135.28C171.93 136.64 171.73 138.8 171.73 141.76V185.68C171.73 188.96 171.73 192.52 171.73 196.36C171.81 200.12 171.69 203.8 171.37 207.4C171.13 211 170.57 214.2 169.69 217C167.93 222.52 164.05 227.16 158.05 230.92C152.05 234.68 143.73 236.56 133.09 236.56ZM199.341 214.84C195.581 214.84 192.501 214.12 190.101 212.68C187.701 211.24 185.941 209.36 184.821 207.04C183.781 204.72 183.261 202.28 183.261 199.72C183.261 196.36 184.021 193.64 185.541 191.56C187.061 189.4 189.021 187.68 191.421 186.4C193.901 185.04 196.501 183.92 199.221 183.04C201.941 182.16 204.501 181.32 206.901 180.52C209.381 179.64 211.381 178.64 212.901 177.52C214.421 176.32 215.181 174.8 215.181 172.96V162.28C215.181 161 214.941 159.6 214.461 158.08C214.061 156.56 213.261 155.24 212.061 154.12C210.861 153 209.061 152.44 206.661 152.44C205.381 152.44 204.141 152.64 202.941 153.04C201.821 153.36 200.821 153.84 199.941 154.48C202.741 155.52 204.781 157 206.061 158.92C207.341 160.76 207.981 162.8 207.981 165.04C207.981 168.24 206.861 170.76 204.621 172.6C202.381 174.44 199.741 175.36 196.701 175.36C193.501 175.36 191.021 174.36 189.261 172.36C187.501 170.36 186.621 167.88 186.621 164.92C186.621 162.44 187.221 160.36 188.421 158.68C189.701 156.92 191.581 155.32 194.061 153.88C196.461 152.52 199.341 151.56 202.701 151C206.061 150.36 209.581 150.04 213.261 150.04C217.181 150.04 220.821 150.44 224.181 151.24C227.541 151.96 230.421 153.56 232.821 156.04C234.501 157.8 235.581 160 236.061 162.64C236.541 165.28 236.781 168.68 236.781 172.84V205C236.781 207 236.901 208.36 237.141 209.08C237.461 209.8 237.981 210.16 238.701 210.16C239.341 210.16 239.941 209.96 240.501 209.56C241.141 209.16 241.741 208.76 242.301 208.36L243.501 210.4C241.741 211.92 239.541 213.04 236.901 213.76C234.341 214.48 231.621 214.84 228.741 214.84C225.301 214.84 222.621 214.44 220.701 213.64C218.861 212.76 217.541 211.64 216.741 210.28C216.021 208.84 215.621 207.32 215.541 205.72C213.861 208.36 211.741 210.56 209.181 212.32C206.701 214 203.421 214.84 199.341 214.84ZM210.741 205.24C211.621 205.24 212.381 205.12 213.021 204.88C213.741 204.56 214.461 204 215.181 203.2V177.88C214.621 178.92 213.861 179.96 212.901 181C212.021 181.96 211.101 182.96 210.141 184C209.181 185.04 208.261 186.16 207.381 187.36C206.581 188.56 205.901 189.96 205.341 191.56C204.861 193.08 204.621 194.88 204.621 196.96C204.621 200 205.181 202.16 206.301 203.44C207.501 204.64 208.981 205.24 210.741 205.24ZM293.091 150.04C296.771 150.04 299.651 150.52 301.731 151.48C303.891 152.36 305.531 153.48 306.651 154.84C307.851 156.28 308.731 158.2 309.291 160.6C309.851 163 310.131 166.24 310.131 170.32V202.84C310.131 206.2 310.531 208.48 311.331 209.68C312.131 210.88 313.571 211.48 315.651 211.48V214C314.131 213.92 311.851 213.84 308.811 213.76C305.851 213.6 302.931 213.52 300.051 213.52C296.931 213.52 293.891 213.6 290.931 213.76C287.971 213.84 285.731 213.92 284.211 214V211.48C285.811 211.48 286.931 210.88 287.571 209.68C288.211 208.48 288.531 206.2 288.531 202.84V163.84C288.531 162.16 288.371 160.76 288.051 159.64C287.731 158.52 287.211 157.68 286.491 157.12C285.851 156.56 284.971 156.28 283.851 156.28C282.411 156.28 281.011 156.64 279.651 157.36C278.371 158.08 277.291 159.12 276.411 160.48C275.611 161.76 275.211 163.24 275.211 164.92V202.84C275.211 206.2 275.531 208.48 276.171 209.68C276.811 210.88 277.931 211.48 279.531 211.48V214C278.171 213.92 276.091 213.84 273.291 213.76C270.571 213.6 267.771 213.52 264.891 213.52C261.531 213.52 258.131 213.6 254.691 213.76C251.251 213.84 248.651 213.92 246.891 214V211.48C249.371 211.48 251.091 210.88 252.051 209.68C253.091 208.48 253.611 206.2 253.611 202.84V164.8C253.611 161.2 253.131 158.56 252.171 156.88C251.211 155.12 249.451 154.24 246.891 154.24V151.72C249.451 151.96 251.931 152.08 254.331 152.08C258.331 152.08 262.051 151.96 265.491 151.72C269.011 151.4 272.251 150.96 275.211 150.4V159.04C277.051 155.84 279.491 153.56 282.531 152.2C285.571 150.76 289.091 150.04 293.091 150.04ZM329.211 150.04C332.891 150.04 335.771 150.52 337.851 151.48C340.011 152.36 341.651 153.48 342.771 154.84C343.971 156.28 344.851 158.2 345.411 160.6C345.971 163 346.251 166.24 346.251 170.32V202.84C346.251 206.2 346.731 208.48 347.691 209.68C348.731 210.88 350.491 211.48 352.971 211.48V214C351.371 213.92 348.931 213.84 345.651 213.76C342.451 213.6 339.291 213.52 336.171 213.52C333.051 213.52 330.011 213.6 327.051 213.76C324.091 213.84 321.851 213.92 320.331 214V211.48C321.931 211.48 323.051 210.88 323.691 209.68C324.331 208.48 324.651 206.2 324.651 202.84V163.84C324.651 162.16 324.451 160.76 324.051 159.64C323.651 158.52 323.011 157.68 322.131 157.12C321.331 156.56 320.211 156.28 318.771 156.28C317.331 156.28 315.931 156.72 314.571 157.6C313.291 158.48 312.211 159.64 311.331 161.08C310.531 162.44 310.051 163.96 309.891 165.64L309.051 160.84C311.211 156.6 314.011 153.76 317.451 152.32C320.971 150.8 324.891 150.04 329.211 150.04ZM388.853 150.04C395.893 150.04 401.413 152.12 405.413 156.28C409.493 160.36 411.533 167.24 411.533 176.92H373.973L373.733 174.64H394.013C394.093 170.72 393.933 167.12 393.533 163.84C393.133 160.48 392.493 157.8 391.613 155.8C390.733 153.8 389.533 152.8 388.013 152.8C385.853 152.8 384.093 154.52 382.733 157.96C381.373 161.32 380.493 167.12 380.093 175.36L380.573 176.32C380.493 177.12 380.453 177.92 380.453 178.72C380.453 179.52 380.453 180.36 380.453 181.24C380.453 186.84 381.133 191.2 382.493 194.32C383.933 197.44 385.693 199.6 387.773 200.8C389.933 202 392.093 202.6 394.253 202.6C395.373 202.6 396.693 202.44 398.213 202.12C399.813 201.8 401.533 201.08 403.373 199.96C405.213 198.76 407.013 196.96 408.773 194.56L410.813 195.28C409.853 198.48 408.293 201.68 406.133 204.88C404.053 208 401.333 210.6 397.973 212.68C394.613 214.68 390.533 215.68 385.733 215.68C380.613 215.68 375.933 214.64 371.693 212.56C367.533 210.48 364.213 207.04 361.733 202.24C359.253 197.44 358.013 191 358.013 182.92C358.013 175.24 359.373 169 362.093 164.2C364.813 159.32 368.493 155.76 373.133 153.52C377.853 151.2 383.093 150.04 388.853 150.04ZM442.365 150.04C445.885 150.04 448.965 150.44 451.605 151.24C454.325 151.96 456.285 152.64 457.485 153.28C460.285 154.96 462.005 153.92 462.645 150.16H465.045C464.885 152.48 464.765 155.32 464.685 158.68C464.605 161.96 464.565 166.32 464.565 171.76H462.165C461.845 168.8 461.125 165.88 460.005 163C458.965 160.12 457.405 157.72 455.325 155.8C453.325 153.88 450.685 152.92 447.405 152.92C445.405 152.92 443.725 153.52 442.365 154.72C441.005 155.92 440.325 157.56 440.325 159.64C440.325 162.04 441.045 164.2 442.485 166.12C443.925 167.96 445.765 169.76 448.005 171.52C450.245 173.2 452.485 175 454.725 176.92C457.205 178.92 459.405 180.88 461.325 182.8C463.245 184.72 464.765 186.84 465.885 189.16C467.085 191.4 467.685 194.08 467.685 197.2C467.685 200.8 466.565 204 464.325 206.8C462.165 209.6 459.245 211.8 455.565 213.4C451.965 214.92 447.925 215.68 443.445 215.68C440.645 215.68 438.205 215.36 436.125 214.72C434.045 214.16 432.365 213.48 431.085 212.68C429.805 212.04 428.685 211.56 427.725 211.24C426.845 210.84 425.965 210.64 425.085 210.64C424.285 210.64 423.605 211.08 423.045 211.96C422.485 212.76 422.045 213.72 421.725 214.84H419.325C419.485 212.28 419.605 209.16 419.685 205.48C419.765 201.8 419.805 196.92 419.805 190.84H422.205C422.685 195.08 423.605 198.84 424.965 202.12C426.405 205.4 428.205 208 430.365 209.92C432.605 211.76 435.165 212.68 438.045 212.68C439.325 212.68 440.485 212.44 441.525 211.96C442.565 211.48 443.405 210.76 444.045 209.8C444.685 208.84 445.005 207.6 445.005 206.08C445.005 202.56 443.925 199.6 441.765 197.2C439.685 194.8 437.045 192.16 433.845 189.28C431.445 187.04 429.165 184.88 427.005 182.8C424.925 180.64 423.205 178.32 421.845 175.84C420.485 173.28 419.805 170.44 419.805 167.32C419.805 163.72 420.845 160.64 422.925 158.08C425.085 155.52 427.885 153.56 431.325 152.2C434.765 150.76 438.445 150.04 442.365 150.04Z" fill="white" class="transition-colors"/>
</svg>
