<svg width="100%"  viewBox="0 0 802 117" xmlns="http://www.w3.org/2000/svg">
    <title>Kezia &amp; James</title>
    <path d="M85.3245 9.04V11.32C82.6045 12.04 79.5645 13.36 76.2045 15.28C72.9245 17.2 69.4045 20.28 65.6445 24.52L43.5645 49.6L53.2845 36.88L81.7245 84.28C82.7645 85.96 83.8045 87.36 84.8445 88.48C85.8845 89.6 87.2845 90.64 89.0445 91.6V94C85.6845 93.84 82.0845 93.76 78.2445 93.76C74.4845 93.68 70.8845 93.64 67.4445 93.64C65.6045 93.64 63.3245 93.68 60.6045 93.76C57.8845 93.76 54.4445 93.84 50.2845 94V91.6C54.0445 91.44 56.2045 91 56.7645 90.28C57.4045 89.56 57.1245 88.2 55.9245 86.2L38.5245 56.8C37.7245 55.36 37.0045 54.28 36.3645 53.56C35.7245 52.84 35.0845 52.32 34.4445 52C33.8845 51.68 33.1245 51.48 32.1645 51.4V48.88C35.6845 48.72 39.0045 47.56 42.1245 45.4C45.2445 43.16 49.0045 39.56 53.4045 34.6L57.4845 30.04C60.8445 26.28 62.6045 23.04 62.7645 20.32C63.0045 17.52 62.1645 15.36 60.2445 13.84C58.4045 12.24 55.9645 11.4 52.9245 11.32V9.04C55.1645 9.12 57.2445 9.2 59.1645 9.28C61.1645 9.28 63.2445 9.32 65.4045 9.39999C67.6445 9.39999 70.2445 9.39999 73.2045 9.39999C75.7645 9.39999 78.0045 9.36 79.9245 9.28C81.9245 9.2 83.7245 9.12 85.3245 9.04ZM41.4045 9.04V11.44C39.0045 11.52 37.1645 11.84 35.8845 12.4C34.6845 12.88 33.8845 13.84 33.4845 15.28C33.0845 16.64 32.8845 18.8 32.8845 21.76V81.28C32.8845 84.16 33.0845 86.32 33.4845 87.76C33.9645 89.2 34.8045 90.16 36.0045 90.64C37.2045 91.12 39.0045 91.44 41.4045 91.6V94C39.0845 93.84 36.0845 93.76 32.4045 93.76C28.8045 93.68 25.1245 93.64 21.3645 93.64C17.0445 93.64 12.9645 93.68 9.12453 93.76C5.36453 93.76 2.32453 93.84 0.00453135 94V91.6C2.48453 91.44 4.32453 91.12 5.52453 90.64C6.72453 90.16 7.52453 89.2 7.92453 87.76C8.32453 86.32 8.52453 84.16 8.52453 81.28V21.76C8.52453 18.8 8.32453 16.64 7.92453 15.28C7.52453 13.84 6.68453 12.88 5.40453 12.4C4.20453 11.84 2.40453 11.52 0.00453135 11.44V9.04C2.32453 9.12 5.36453 9.2 9.12453 9.28C12.9645 9.36 17.0445 9.39999 21.3645 9.39999C25.1245 9.39999 28.8045 9.36 32.4045 9.28C36.0845 9.2 39.0845 9.12 41.4045 9.04ZM118.392 30.04C125.432 30.04 130.952 32.12 134.952 36.28C139.032 40.36 141.072 47.24 141.072 56.92H103.512L103.272 54.64H123.552C123.632 50.72 123.472 47.12 123.072 43.84C122.672 40.48 122.032 37.8 121.152 35.8C120.272 33.8 119.072 32.8 117.552 32.8C115.392 32.8 113.632 34.52 112.272 37.96C110.912 41.32 110.032 47.12 109.632 55.36L110.112 56.32C110.032 57.12 109.992 57.92 109.992 58.72C109.992 59.52 109.992 60.36 109.992 61.24C109.992 66.84 110.672 71.2 112.032 74.32C113.472 77.44 115.232 79.6 117.312 80.8C119.472 82 121.632 82.6 123.792 82.6C124.912 82.6 126.232 82.44 127.752 82.12C129.352 81.8 131.072 81.08 132.912 79.96C134.752 78.76 136.552 76.96 138.312 74.56L140.352 75.28C139.392 78.48 137.832 81.68 135.672 84.88C133.592 88 130.872 90.6 127.512 92.68C124.152 94.68 120.072 95.68 115.272 95.68C110.152 95.68 105.472 94.64 101.232 92.56C97.072 90.48 93.752 87.04 91.272 82.24C88.792 77.44 87.552 71 87.552 62.92C87.552 55.24 88.912 49 91.632 44.2C94.352 39.32 98.032 35.76 102.672 33.52C107.392 31.2 112.632 30.04 118.392 30.04ZM197.824 31.24L170.944 92.2H172.624C175.664 92.2 178.664 91.52 181.624 90.16C184.664 88.8 187.264 86.48 189.424 83.2C191.664 79.84 192.984 75.2 193.384 69.28H195.784C195.784 75.6 195.824 80.72 195.904 84.64C195.984 88.48 196.104 91.76 196.264 94.48C192.584 94.32 188.744 94.2 184.744 94.12C180.744 94.04 176.744 94 172.744 94C168.584 94 164.304 94.04 159.904 94.12C155.504 94.28 151.304 94.44 147.304 94.6L174.184 33.64H171.784C168.824 33.64 165.864 34.32 162.904 35.68C160.024 37.04 157.544 39.4 155.464 42.76C153.464 46.04 152.224 50.64 151.744 56.56H149.344C149.344 50.16 149.304 45.04 149.224 41.2C149.144 37.36 149.024 34.08 148.864 31.36C152.624 31.52 156.504 31.64 160.504 31.72C164.504 31.8 168.464 31.84 172.384 31.84C176.624 31.84 180.904 31.8 185.224 31.72C189.624 31.56 193.824 31.4 197.824 31.24ZM220.105 0.159992C224.265 0.159992 227.465 1.03999 229.705 2.79999C232.025 4.48 233.185 7.04 233.185 10.48C233.185 13.92 232.025 16.52 229.705 18.28C227.465 19.96 224.265 20.8 220.105 20.8C215.945 20.8 212.705 19.96 210.385 18.28C208.145 16.52 207.025 13.92 207.025 10.48C207.025 7.04 208.145 4.48 210.385 2.79999C212.705 1.03999 215.945 0.159992 220.105 0.159992ZM231.625 30.4V82.84C231.625 86.2 232.105 88.48 233.065 89.68C234.105 90.88 235.865 91.48 238.345 91.48V94C236.745 93.92 234.345 93.84 231.145 93.76C227.945 93.6 224.665 93.52 221.305 93.52C217.945 93.52 214.545 93.6 211.105 93.76C207.665 93.84 205.065 93.92 203.305 94V91.48C205.785 91.48 207.505 90.88 208.465 89.68C209.505 88.48 210.025 86.2 210.025 82.84V44.8C210.025 41.2 209.545 38.56 208.585 36.88C207.625 35.12 205.865 34.24 203.305 34.24V31.72C205.865 31.96 208.345 32.08 210.745 32.08C214.745 32.08 218.465 31.96 221.905 31.72C225.425 31.4 228.665 30.96 231.625 30.4ZM259.115 94.84C255.355 94.84 252.275 94.12 249.875 92.68C247.475 91.24 245.715 89.36 244.595 87.04C243.555 84.72 243.035 82.28 243.035 79.72C243.035 76.36 243.795 73.64 245.315 71.56C246.835 69.4 248.795 67.68 251.195 66.4C253.675 65.04 256.275 63.92 258.995 63.04C261.715 62.16 264.275 61.32 266.675 60.52C269.155 59.64 271.155 58.64 272.675 57.52C274.195 56.32 274.955 54.8 274.955 52.96V42.28C274.955 41 274.715 39.6 274.235 38.08C273.835 36.56 273.035 35.24 271.835 34.12C270.635 33 268.835 32.44 266.435 32.44C265.155 32.44 263.915 32.64 262.715 33.04C261.595 33.36 260.595 33.84 259.715 34.48C262.515 35.52 264.555 37 265.835 38.92C267.115 40.76 267.755 42.8 267.755 45.04C267.755 48.24 266.635 50.76 264.395 52.6C262.155 54.44 259.515 55.36 256.475 55.36C253.275 55.36 250.795 54.36 249.035 52.36C247.275 50.36 246.395 47.88 246.395 44.92C246.395 42.44 246.995 40.36 248.195 38.68C249.475 36.92 251.355 35.32 253.835 33.88C256.235 32.52 259.115 31.56 262.475 31C265.835 30.36 269.355 30.04 273.035 30.04C276.955 30.04 280.595 30.44 283.955 31.24C287.315 31.96 290.195 33.56 292.595 36.04C294.275 37.8 295.355 40 295.835 42.64C296.315 45.28 296.555 48.68 296.555 52.84V85C296.555 87 296.675 88.36 296.915 89.08C297.235 89.8 297.755 90.16 298.475 90.16C299.115 90.16 299.715 89.96 300.275 89.56C300.915 89.16 301.515 88.76 302.075 88.36L303.275 90.4C301.515 91.92 299.315 93.04 296.675 93.76C294.115 94.48 291.395 94.84 288.515 94.84C285.075 94.84 282.395 94.44 280.475 93.64C278.635 92.76 277.315 91.64 276.515 90.28C275.795 88.84 275.395 87.32 275.315 85.72C273.635 88.36 271.515 90.56 268.955 92.32C266.475 94 263.195 94.84 259.115 94.84ZM270.515 85.24C271.395 85.24 272.155 85.12 272.795 84.88C273.515 84.56 274.235 84 274.955 83.2V57.88C274.395 58.92 273.635 59.96 272.675 61C271.795 61.96 270.875 62.96 269.915 64C268.955 65.04 268.035 66.16 267.155 67.36C266.355 68.56 265.675 69.96 265.115 71.56C264.635 73.08 264.395 74.88 264.395 76.96C264.395 80 264.955 82.16 266.075 83.44C267.275 84.64 268.755 85.24 270.515 85.24ZM372.383 8.2C375.503 8.2 377.983 8.36 379.823 8.68C381.663 8.92 383.343 9.32 384.863 9.88C386.223 10.28 387.583 10.92 388.943 11.8C390.383 12.68 391.583 13.84 392.543 15.28C393.503 16.72 393.983 18.48 393.983 20.56C393.983 23.28 392.903 25.48 390.743 27.16C388.663 28.84 386.103 29.68 383.063 29.68C380.183 29.68 377.743 29 375.743 27.64C373.743 26.28 372.743 24.16 372.743 21.28C372.743 19.04 373.503 17 375.023 15.16C376.623 13.24 378.703 11.96 381.263 11.32C380.463 11 379.383 10.76 378.023 10.6C376.743 10.44 375.463 10.36 374.183 10.36C369.943 10.36 366.263 11.72 363.143 14.44C360.023 17.16 358.463 21.36 358.463 27.04C358.463 28.56 358.703 30.32 359.183 32.32C359.663 34.24 360.663 36.24 362.183 38.32C363.543 37.92 364.703 37.64 365.663 37.48C366.623 37.32 367.543 37.24 368.423 37.24C369.863 37.24 370.903 37.56 371.543 38.2C372.263 38.84 372.623 39.68 372.623 40.72C372.623 41.52 372.263 42.16 371.543 42.64C370.903 43.12 370.143 43.36 369.263 43.36C367.983 43.36 366.703 42.96 365.423 42.16C364.143 41.36 363.103 40.64 362.303 40C359.103 42.24 356.503 44.84 354.503 47.8C352.503 50.76 351.503 54.56 351.503 59.2C351.503 64.32 352.903 68.48 355.703 71.68C358.583 74.8 362.783 77.12 368.303 78.64C373.823 80.08 380.503 80.8 388.343 80.8C392.183 80.8 396.103 80.4 400.103 79.6C404.103 78.8 407.783 77.56 411.143 75.88C414.503 74.2 417.223 72.12 419.303 69.64C421.383 67.08 422.423 64.08 422.423 60.64C422.423 59.52 422.303 58.12 422.063 56.44C421.903 54.76 421.343 53.04 420.383 51.28C419.423 49.52 417.783 48 415.463 46.72L415.823 45.76C419.103 46.8 421.783 49.16 423.863 52.84C426.023 56.52 427.103 60.84 427.103 65.8C427.103 71.88 425.183 77.16 421.343 81.64C417.503 86.12 412.223 89.6 405.503 92.08C398.783 94.48 391.103 95.68 382.463 95.68C374.863 95.68 368.103 95 362.183 93.64C356.343 92.28 351.383 90.32 347.303 87.76C343.223 85.12 340.103 81.96 337.943 78.28C335.863 74.6 334.823 70.44 334.823 65.8C334.823 61.24 335.783 57.36 337.703 54.16C339.703 50.96 342.143 48.32 345.023 46.24C347.903 44.16 350.783 42.56 353.663 41.44C356.543 40.24 358.863 39.44 360.623 39.04C358.223 38.16 355.903 37.12 353.663 35.92C351.423 34.64 349.583 33.04 348.143 31.12C346.783 29.2 346.103 26.88 346.103 24.16C346.103 21.12 346.903 18.6 348.503 16.6C350.183 14.52 352.343 12.88 354.983 11.68C357.703 10.48 360.583 9.6 363.623 9.04C366.663 8.48 369.583 8.2 372.383 8.2ZM421.823 7.35999C427.903 7.35999 432.783 8.87999 436.463 11.92C440.143 14.96 441.983 19.24 441.983 24.76C441.983 29.8 440.663 33.96 438.023 37.24C435.383 40.44 431.583 43 426.623 44.92C421.743 46.76 415.863 48.2 408.983 49.24C408.263 49.32 407.503 49.44 406.703 49.6C405.983 49.68 405.263 49.8 404.543 49.96C403.823 50.04 403.103 50.16 402.383 50.32C401.743 50.4 401.063 50.52 400.343 50.68C392.023 52.2 385.703 53.84 381.383 55.6C377.143 57.28 375.023 59.76 375.023 63.04C375.023 64.96 375.703 66.68 377.063 68.2C378.503 69.64 380.303 70.76 382.463 71.56C384.703 72.36 386.983 72.76 389.303 72.76C389.703 72.76 390.063 72.76 390.383 72.76C390.783 72.68 391.143 72.64 391.463 72.64C391.863 72.56 392.223 72.52 392.543 72.52C390.063 71.64 388.383 70.36 387.503 68.68C386.623 67 386.183 65.28 386.183 63.52C386.183 60.56 387.303 58.32 389.543 56.8C391.783 55.28 394.543 54.52 397.823 54.52C401.343 54.52 404.063 55.36 405.983 57.04C407.983 58.72 408.983 60.96 408.983 63.76C408.983 66.4 408.183 68.56 406.583 70.24C405.063 71.92 402.903 73.16 400.103 73.96C397.303 74.68 393.983 75.04 390.143 75.04C386.383 75.04 382.983 74.44 379.943 73.24C376.983 71.96 374.623 70.12 372.863 67.72C371.183 65.32 370.343 62.32 370.343 58.72C370.343 53.6 371.703 49.4 374.423 46.12C377.223 42.76 381.143 40.08 386.183 38.08C391.223 36.08 397.143 34.6 403.943 33.64C405.143 33.48 406.303 33.32 407.423 33.16C408.543 32.92 409.663 32.72 410.783 32.56C411.983 32.32 413.183 32.12 414.383 31.96C421.263 30.84 426.823 29.44 431.063 27.76C435.383 26.08 437.543 23.44 437.543 19.84C437.543 17.76 436.863 15.96 435.503 14.44C434.223 12.92 432.543 11.76 430.463 10.96C428.463 10.16 426.383 9.76 424.223 9.76C423.663 9.76 423.103 9.8 422.543 9.88C421.983 9.88 421.463 9.92 420.983 9.99999C423.463 10.88 425.303 12.16 426.503 13.84C427.783 15.52 428.423 17.24 428.423 19C428.423 21.96 427.343 24.2 425.183 25.72C423.023 27.16 420.303 27.88 417.023 27.88C413.503 27.88 410.703 27.04 408.623 25.36C406.623 23.68 405.623 21.44 405.623 18.64C405.623 16.48 406.183 14.56 407.303 12.88C408.423 11.12 410.183 9.76 412.583 8.8C414.983 7.83999 418.063 7.35999 421.823 7.35999ZM467.199 116.56V114.04C470.079 113.64 472.599 112.68 474.759 111.16C476.919 109.72 478.559 107.12 479.679 103.36C480.879 99.68 481.479 94.36 481.479 87.4V21.76C481.479 18.8 481.279 16.64 480.879 15.28C480.479 13.84 479.639 12.88 478.359 12.4C477.159 11.84 475.359 11.52 472.959 11.44V9.04C475.119 9.12 477.999 9.2 481.599 9.28C485.199 9.36 488.999 9.39999 492.999 9.39999C496.999 9.39999 500.919 9.36 504.759 9.28C508.679 9.2 511.879 9.12 514.359 9.04V11.44C511.959 11.52 510.119 11.84 508.839 12.4C507.639 12.88 506.839 13.84 506.439 15.28C506.039 16.64 505.839 18.8 505.839 21.76V65.68C505.839 68.96 505.839 72.52 505.839 76.36C505.919 80.12 505.799 83.8 505.479 87.4C505.239 91 504.679 94.2 503.799 97C502.039 102.52 498.159 107.16 492.159 110.92C486.159 114.68 477.839 116.56 467.199 116.56ZM533.45 94.84C529.69 94.84 526.61 94.12 524.21 92.68C521.81 91.24 520.05 89.36 518.93 87.04C517.89 84.72 517.37 82.28 517.37 79.72C517.37 76.36 518.13 73.64 519.65 71.56C521.17 69.4 523.13 67.68 525.53 66.4C528.01 65.04 530.61 63.92 533.33 63.04C536.05 62.16 538.61 61.32 541.01 60.52C543.49 59.64 545.49 58.64 547.01 57.52C548.53 56.32 549.29 54.8 549.29 52.96V42.28C549.29 41 549.05 39.6 548.57 38.08C548.17 36.56 547.37 35.24 546.17 34.12C544.97 33 543.17 32.44 540.77 32.44C539.49 32.44 538.25 32.64 537.05 33.04C535.93 33.36 534.93 33.84 534.05 34.48C536.85 35.52 538.89 37 540.17 38.92C541.45 40.76 542.09 42.8 542.09 45.04C542.09 48.24 540.97 50.76 538.73 52.6C536.49 54.44 533.85 55.36 530.81 55.36C527.61 55.36 525.13 54.36 523.37 52.36C521.61 50.36 520.73 47.88 520.73 44.92C520.73 42.44 521.33 40.36 522.53 38.68C523.81 36.92 525.69 35.32 528.17 33.88C530.57 32.52 533.45 31.56 536.81 31C540.17 30.36 543.69 30.04 547.37 30.04C551.29 30.04 554.93 30.44 558.29 31.24C561.65 31.96 564.53 33.56 566.93 36.04C568.61 37.8 569.69 40 570.17 42.64C570.65 45.28 570.89 48.68 570.89 52.84V85C570.89 87 571.01 88.36 571.25 89.08C571.57 89.8 572.09 90.16 572.81 90.16C573.45 90.16 574.05 89.96 574.61 89.56C575.25 89.16 575.85 88.76 576.41 88.36L577.61 90.4C575.85 91.92 573.65 93.04 571.01 93.76C568.45 94.48 565.73 94.84 562.85 94.84C559.41 94.84 556.73 94.44 554.81 93.64C552.97 92.76 551.65 91.64 550.85 90.28C550.13 88.84 549.73 87.32 549.65 85.72C547.97 88.36 545.85 90.56 543.29 92.32C540.81 94 537.53 94.84 533.45 94.84ZM544.85 85.24C545.73 85.24 546.49 85.12 547.13 84.88C547.85 84.56 548.57 84 549.29 83.2V57.88C548.73 58.92 547.97 59.96 547.01 61C546.13 61.96 545.21 62.96 544.25 64C543.29 65.04 542.37 66.16 541.49 67.36C540.69 68.56 540.01 69.96 539.45 71.56C538.97 73.08 538.73 74.88 538.73 76.96C538.73 80 539.29 82.16 540.41 83.44C541.61 84.64 543.09 85.24 544.85 85.24ZM627.2 30.04C630.88 30.04 633.76 30.52 635.84 31.48C638 32.36 639.64 33.48 640.76 34.84C641.96 36.28 642.84 38.2 643.4 40.6C643.96 43 644.24 46.24 644.24 50.32V82.84C644.24 86.2 644.64 88.48 645.44 89.68C646.24 90.88 647.68 91.48 649.76 91.48V94C648.24 93.92 645.96 93.84 642.92 93.76C639.96 93.6 637.04 93.52 634.16 93.52C631.04 93.52 628 93.6 625.04 93.76C622.08 93.84 619.84 93.92 618.32 94V91.48C619.92 91.48 621.04 90.88 621.68 89.68C622.32 88.48 622.64 86.2 622.64 82.84V43.84C622.64 42.16 622.48 40.76 622.16 39.64C621.84 38.52 621.32 37.68 620.6 37.12C619.96 36.56 619.08 36.28 617.96 36.28C616.52 36.28 615.12 36.64 613.76 37.36C612.48 38.08 611.4 39.12 610.52 40.48C609.72 41.76 609.32 43.24 609.32 44.92V82.84C609.32 86.2 609.64 88.48 610.28 89.68C610.92 90.88 612.04 91.48 613.64 91.48V94C612.28 93.92 610.2 93.84 607.4 93.76C604.68 93.6 601.88 93.52 599 93.52C595.64 93.52 592.24 93.6 588.8 93.76C585.36 93.84 582.76 93.92 581 94V91.48C583.48 91.48 585.2 90.88 586.16 89.68C587.2 88.48 587.72 86.2 587.72 82.84V44.8C587.72 41.2 587.24 38.56 586.28 36.88C585.32 35.12 583.56 34.24 581 34.24V31.72C583.56 31.96 586.04 32.08 588.44 32.08C592.44 32.08 596.16 31.96 599.6 31.72C603.12 31.4 606.36 30.96 609.32 30.4V39.04C611.16 35.84 613.6 33.56 616.64 32.2C619.68 30.76 623.2 30.04 627.2 30.04ZM663.32 30.04C667 30.04 669.88 30.52 671.96 31.48C674.12 32.36 675.76 33.48 676.88 34.84C678.08 36.28 678.96 38.2 679.52 40.6C680.08 43 680.36 46.24 680.36 50.32V82.84C680.36 86.2 680.84 88.48 681.8 89.68C682.84 90.88 684.6 91.48 687.08 91.48V94C685.48 93.92 683.04 93.84 679.76 93.76C676.56 93.6 673.4 93.52 670.28 93.52C667.16 93.52 664.12 93.6 661.16 93.76C658.2 93.84 655.96 93.92 654.44 94V91.48C656.04 91.48 657.16 90.88 657.8 89.68C658.44 88.48 658.76 86.2 658.76 82.84V43.84C658.76 42.16 658.56 40.76 658.16 39.64C657.76 38.52 657.12 37.68 656.24 37.12C655.44 36.56 654.32 36.28 652.88 36.28C651.44 36.28 650.04 36.72 648.68 37.6C647.4 38.48 646.32 39.64 645.44 41.08C644.64 42.44 644.16 43.96 644 45.64L643.16 40.84C645.32 36.6 648.12 33.76 651.56 32.32C655.08 30.8 659 30.04 663.32 30.04ZM722.962 30.04C730.002 30.04 735.522 32.12 739.522 36.28C743.602 40.36 745.642 47.24 745.642 56.92H708.082L707.842 54.64H728.122C728.202 50.72 728.042 47.12 727.642 43.84C727.242 40.48 726.602 37.8 725.722 35.8C724.842 33.8 723.642 32.8 722.122 32.8C719.962 32.8 718.202 34.52 716.842 37.96C715.482 41.32 714.602 47.12 714.202 55.36L714.682 56.32C714.602 57.12 714.562 57.92 714.562 58.72C714.562 59.52 714.562 60.36 714.562 61.24C714.562 66.84 715.242 71.2 716.602 74.32C718.042 77.44 719.802 79.6 721.882 80.8C724.042 82 726.202 82.6 728.362 82.6C729.482 82.6 730.802 82.44 732.322 82.12C733.922 81.8 735.642 81.08 737.482 79.96C739.322 78.76 741.122 76.96 742.882 74.56L744.922 75.28C743.962 78.48 742.402 81.68 740.242 84.88C738.162 88 735.442 90.6 732.082 92.68C728.722 94.68 724.642 95.68 719.842 95.68C714.722 95.68 710.042 94.64 705.802 92.56C701.642 90.48 698.322 87.04 695.842 82.24C693.362 77.44 692.122 71 692.122 62.92C692.122 55.24 693.482 49 696.202 44.2C698.922 39.32 702.602 35.76 707.242 33.52C711.962 31.2 717.202 30.04 722.962 30.04ZM776.474 30.04C779.994 30.04 783.074 30.44 785.714 31.24C788.434 31.96 790.394 32.64 791.594 33.28C794.394 34.96 796.114 33.92 796.754 30.16H799.154C798.994 32.48 798.874 35.32 798.794 38.68C798.714 41.96 798.674 46.32 798.674 51.76H796.274C795.954 48.8 795.234 45.88 794.114 43C793.074 40.12 791.514 37.72 789.434 35.8C787.434 33.88 784.794 32.92 781.514 32.92C779.514 32.92 777.834 33.52 776.474 34.72C775.114 35.92 774.434 37.56 774.434 39.64C774.434 42.04 775.154 44.2 776.594 46.12C778.034 47.96 779.874 49.76 782.114 51.52C784.354 53.2 786.594 55 788.834 56.92C791.314 58.92 793.514 60.88 795.434 62.8C797.354 64.72 798.874 66.84 799.994 69.16C801.194 71.4 801.794 74.08 801.794 77.2C801.794 80.8 800.674 84 798.434 86.8C796.274 89.6 793.354 91.8 789.674 93.4C786.074 94.92 782.034 95.68 777.554 95.68C774.754 95.68 772.314 95.36 770.234 94.72C768.154 94.16 766.474 93.48 765.194 92.68C763.914 92.04 762.794 91.56 761.834 91.24C760.954 90.84 760.074 90.64 759.194 90.64C758.394 90.64 757.714 91.08 757.154 91.96C756.594 92.76 756.154 93.72 755.834 94.84H753.434C753.594 92.28 753.714 89.16 753.794 85.48C753.874 81.8 753.914 76.92 753.914 70.84H756.314C756.794 75.08 757.714 78.84 759.074 82.12C760.514 85.4 762.314 88 764.474 89.92C766.714 91.76 769.274 92.68 772.154 92.68C773.434 92.68 774.594 92.44 775.634 91.96C776.674 91.48 777.514 90.76 778.154 89.8C778.794 88.84 779.114 87.6 779.114 86.08C779.114 82.56 778.034 79.6 775.874 77.2C773.794 74.8 771.154 72.16 767.954 69.28C765.554 67.04 763.274 64.88 761.114 62.8C759.034 60.64 757.314 58.32 755.954 55.84C754.594 53.28 753.914 50.44 753.914 47.32C753.914 43.72 754.954 40.64 757.034 38.08C759.194 35.52 761.994 33.56 765.434 32.2C768.874 30.76 772.554 30.04 776.474 30.04Z" fill="white" class="transition-colors" />
</svg>
